<?xml version="1.0" encoding="utf-8"?>
<!-- Generator: Adobe Illustrator 27.6.1, SVG Export Plug-In . SVG Version: 6.00 Build 0)  -->
<svg version="1.1" id="Layer_1" xmlns="http://www.w3.org/2000/svg" xmlns:xlink="http://www.w3.org/1999/xlink" x="0px" y="0px"
	 viewBox="0 0 1288.8 344.1" style="enable-background:new 0 0 1288.8 344.1;" xml:space="preserve">
<style type="text/css">
	.st0{fill:#F4F4F4;stroke:#F4F4F4;stroke-width:2;stroke-miterlimit:10;}
	.st1{fill:#4E5CA6;}
	.st2{fill:#303031;}
</style>
<path class="st0" d="M97.9,7.5h150.5c49.2,0,89.1,39.9,89.1,89.1v150.5c0,49.2-39.9,89.1-89.1,89.1H97.9
	c-49.2,0-89.1-39.9-89.1-89.1V96.6C8.8,47.4,48.7,7.5,97.9,7.5z"/>
<path class="st1" d="M165.4,287.8c-6.6,0-13.1-0.2-19.4-0.6s-12.5-1-18.6-1.8s-12-1.7-17.6-2.7s-11-2.2-16.2-3.6v-46.2
	c6.8,0.6,14.1,1.1,22,1.5s15.9,0.7,24,0.9s15.6,0.3,22.6,0.3c5.5,0.1,11.1-0.4,16.5-1.5c4.4-1,7.7-2.6,9.9-4.8s3.3-5.2,3.3-9v-3.6
	c0-4.4-1.5-7.7-4.6-9.9c-3.2-2.2-7.1-3.4-11-3.3h-15.8c-23.2,0-40.8-5.1-52.8-15.3s-18-27.3-18-51.3V127c0-22,6.6-38.5,19.8-49.3
	s32.2-16.3,57-16.3c8.9,0,17.7,0.4,26.6,1.3c8.3,0.9,16.1,2,23.4,3.3c7.3,1.3,13.9,2.6,19.7,4v46.2c-9.2-0.8-19.6-1.5-31.1-2
	s-21.9-0.8-31.4-0.8c-5,0-10,0.4-15,1.2c-4.4,0.8-7.8,2.4-10.2,4.8s-3.6,5.9-3.6,10.5v3c0,5,1.6,8.8,4.8,11.4
	c3.2,2.6,8.1,3.9,14.7,3.9h19.8c14,0,25.6,2.6,34.9,7.9c9,5,16.3,12.5,21,21.6s7,19.4,7.1,31v9.9c0,19-3.3,33.5-9.9,43.5
	c-6.6,10-16,16.8-28.2,20.2C197,286,182.4,287.8,165.4,287.8z"/>
<path class="st1" d="M93.7,232.9c-3.1,5.2-5.1,11.1-5.9,17.1c-1.2,10.1,0.9,20.3,5.9,29.1V232.9z"/>
<g>
	<path class="st2" d="M485.1,279.9c-13.2,0-25-2.3-35.6-6.9c-10.5-4.6-19.2-11.1-26-19.7c-6.8-8.5-11.1-18.7-12.9-30.4l31.2-4.8
		c2.7,10.7,8.1,18.9,16.4,24.8c8.3,5.8,17.9,8.8,28.7,8.8c6.4,0,12.5-1,18.1-3c5.7-2,10.3-4.9,13.8-8.8c3.5-3.8,5.3-8.5,5.3-14.1
		c0-2.5-0.4-4.8-1.2-6.9c-0.8-2.1-2.1-4-3.7-5.7c-1.6-1.7-3.7-3.2-6.2-4.6c-2.5-1.4-5.5-2.6-8.8-3.6l-46.5-13.8
		c-4-1.2-8.3-2.7-12.9-4.7c-4.6-2-9-4.7-13.1-8.1c-4.1-3.5-7.5-7.9-10.1-13.3s-3.9-12-3.9-19.9c0-11.6,2.9-21.3,8.8-29.2
		s13.8-13.8,23.8-17.7c10-3.9,21-5.8,33.2-5.8c12.3,0.1,23.3,2.2,33,6.3c9.7,4.1,17.8,10.1,24.2,17.9c6.5,7.8,11.1,17.3,13.8,28.4
		l-32.4,5.6c-1.3-6.3-3.9-11.7-7.7-16.2c-3.8-4.5-8.4-7.9-13.9-10.2c-5.5-2.3-11.3-3.6-17.4-3.8c-6-0.1-11.6,0.8-16.7,2.7
		s-9.2,4.6-12.4,8.1s-4.7,7.6-4.7,12.2c0,4.4,1.3,8,4,10.8c2.7,2.8,6,5,9.9,6.6c4,1.6,8,3,12.1,4.1l32.2,9c4.4,1.2,9.4,2.8,14.9,4.8
		s10.8,4.8,15.9,8.4c5.1,3.6,9.3,8.3,12.6,14.1c3.3,5.8,4.9,13.2,4.9,22.2c0,9.3-1.9,17.5-5.8,24.6c-3.9,7-9.1,12.9-15.7,17.6
		c-6.6,4.7-14.1,8.2-22.6,10.5C503.2,278.7,494.4,279.9,485.1,279.9z"/>
	<path class="st2" d="M585.4,120.6V93h30.1v27.6H585.4z M585.4,276.1v-135h30.1v135H585.4z"/>
	<path class="st2" d="M707.1,279.9c-12.4,0-23.2-3.1-32.5-9.4s-16.4-14.8-21.5-25.5c-5.1-10.8-7.6-22.9-7.6-36.4
		c0-13.7,2.6-25.9,7.7-36.6c5.1-10.7,12.4-19.2,21.8-25.4c9.4-6.2,20.5-9.3,33.2-9.3c12.8,0,23.6,3.1,32.3,9.3
		c8.7,6.2,15.3,14.7,19.8,25.4c4.5,10.8,6.8,22.9,6.8,36.5c0,13.4-2.2,25.5-6.8,36.3c-4.5,10.8-11.2,19.3-20.1,25.6
		C731.3,276.7,720.3,279.9,707.1,279.9z M711.7,252.9c8.1,0,14.6-1.9,19.6-5.6c5-3.7,8.6-8.9,10.9-15.6c2.3-6.7,3.4-14.4,3.4-23.1
		c0-8.8-1.1-16.6-3.4-23.2c-2.3-6.6-5.9-11.8-10.7-15.5c-4.8-3.7-11.1-5.6-18.8-5.6c-8.1,0-14.8,2-20,5.9c-5.2,4-9.1,9.3-11.6,16
		c-2.5,6.7-3.8,14.1-3.8,22.3c0,8.2,1.2,15.7,3.7,22.4c2.5,6.7,6.2,12,11.3,15.9C697.5,250.9,703.9,252.9,711.7,252.9z M745.6,276.1
		v-94.8h-3.8V96.1h30.4v180H745.6z"/>
	<path class="st2" d="M807,276.1v-135h26.9V183h3.6v93.1H807z M900.6,276.1v-65c0-4.2-0.3-9-0.9-14.1c-0.6-5.2-1.9-10.1-4.1-14.9
		c-2.1-4.8-5.3-8.7-9.5-11.8c-4.2-3.1-9.9-4.6-17.1-4.6c-3.8,0-7.6,0.6-11.4,1.9s-7.1,3.4-10.2,6.4c-3,3-5.5,7.2-7.3,12.5
		c-1.8,5.3-2.8,12.1-2.8,20.3l-17.9-7.6c0-11.5,2.2-21.9,6.7-31.3c4.5-9.3,11-16.8,19.7-22.3c8.7-5.5,19.3-8.3,32-8.3
		c10,0,18.2,1.7,24.8,5c6.5,3.3,11.7,7.6,15.5,12.8c3.8,5.2,6.7,10.7,8.5,16.5c1.8,5.8,3,11.4,3.6,16.6c0.5,5.2,0.8,9.4,0.8,12.7
		v75.4H900.6z"/>
	<path class="st2" d="M1022.9,279.9c-13.7,0-25.7-3-36-8.9c-10.3-5.9-18.4-14.1-24.2-24.6c-5.8-10.5-8.7-22.6-8.7-36.2
		c0-14.8,2.8-27.6,8.5-38.4c5.7-10.9,13.5-19.3,23.6-25.3c10.1-6,21.8-9,35-9c14,0,25.9,3.3,35.7,9.8c9.8,6.5,17.1,15.8,21.8,27.7
		c4.8,11.9,6.5,26,5.4,42.1h-29.9v-11c-0.1-14.7-2.7-25.4-7.8-32.1c-5.1-6.8-13.1-10.1-24-10.1c-12.3,0-21.5,3.8-27.5,11.4
		c-6,7.6-9,18.8-9,33.4c0,13.7,3,24.2,9,31.8s14.8,11.2,26.2,11.2c7.4,0,13.8-1.6,19.2-4.9c5.4-3.3,9.5-8.1,12.4-14.3l29.8,9
		c-5.2,12.2-13.1,21.6-23.9,28.4C1047.8,276.5,1035.9,279.9,1022.9,279.9z M976.4,217v-22.8h92.9V217H976.4z"/>
	<path class="st2" d="M1127.2,336.1l26-71.4l0.5,21l-58.9-144.6h31.4l41.8,107h-8l40.6-107h30.1l-75.2,195H1127.2z"/>
</g>
</svg>
